<svg width="209" height="90" viewBox="0 0 209 90" fill="none" xmlns="http://www.w3.org/2000/svg">
<path d="M8.48065 42V5.63636H23.502C26.2245 5.63636 28.5742 6.1276 30.551 7.11008C32.5396 8.08073 34.0725 9.47751 35.1497 11.3004C36.2269 13.1115 36.7654 15.2599 36.7654 17.7457C36.7654 20.267 36.215 22.4096 35.1142 24.1733C34.0133 25.9252 32.4508 27.2628 30.4267 28.1861C28.4025 29.0975 26.0055 29.5533 23.2356 29.5533H13.7363V22.6286H21.6021C22.9279 22.6286 24.0346 22.4569 24.9224 22.1136C25.822 21.7585 26.5027 21.2259 26.9643 20.5156C27.426 19.7936 27.6568 18.8703 27.6568 17.7457C27.6568 16.6212 27.426 15.692 26.9643 14.9581C26.5027 14.2124 25.822 13.656 24.9224 13.2891C24.0228 12.9103 22.916 12.7209 21.6021 12.7209H17.2697V42H8.48065ZM28.9529 25.3807L38.0083 42H28.4203L19.5424 25.3807H28.9529ZM63.5854 5.63636H72.3567V29.0916C72.3567 31.8023 71.7116 34.1638 70.4213 36.1761C69.1311 38.1766 67.3319 39.7273 65.0236 40.8281C62.7154 41.9171 60.0343 42.4616 56.9803 42.4616C53.8908 42.4616 51.1919 41.9171 48.8837 40.8281C46.5755 39.7273 44.7821 38.1766 43.5037 36.1761C42.2253 34.1638 41.5861 31.8023 41.5861 29.0916V5.63636H50.3752V28.3281C50.3752 29.5829 50.6474 30.7015 51.1919 31.6839C51.7483 32.6664 52.5236 33.4358 53.5179 33.9922C54.5123 34.5485 55.6664 34.8267 56.9803 34.8267C58.2942 34.8267 59.4424 34.5485 60.4249 33.9922C61.4192 33.4358 62.1945 32.6664 62.7509 31.6839C63.3072 30.7015 63.5854 29.5829 63.5854 28.3281V5.63636ZM77.8654 42V5.63636H92.8867C95.6093 5.63636 97.9589 6.16903 99.9357 7.23438C101.924 8.28788 103.457 9.7616 104.534 11.6555C105.612 13.5376 106.15 15.7275 106.15 18.2251C106.15 20.7346 105.6 22.9304 104.499 24.8125C103.41 26.6828 101.853 28.1328 99.8292 29.1626C97.805 30.1925 95.4021 30.7074 92.6204 30.7074H83.3519V23.7827H90.9869C92.3126 23.7827 93.4194 23.5518 94.3072 23.0902C95.2068 22.6286 95.8874 21.9834 96.3491 21.1548C96.8107 20.3144 97.0415 19.3378 97.0415 18.2251C97.0415 17.1006 96.8107 16.13 96.3491 15.3132C95.8874 14.4846 95.2068 13.8454 94.3072 13.3956C93.4076 12.9458 92.3008 12.7209 90.9869 12.7209H86.6545V42H77.8654ZM110.483 42V5.63636H135.838V12.7741H119.272V20.2315H134.542V27.3871H119.272V34.8622H135.838V42H110.483ZM160.998 16.5384C160.879 15.2363 160.352 14.2242 159.417 13.5021C158.494 12.7682 157.174 12.4013 155.458 12.4013C154.321 12.4013 153.374 12.5492 152.617 12.8452C151.859 13.1411 151.291 13.5495 150.912 14.0703C150.533 14.5793 150.338 15.1652 150.326 15.8281C150.303 16.3726 150.409 16.852 150.646 17.2663C150.895 17.6806 151.25 18.0476 151.711 18.3672C152.185 18.675 152.753 18.9472 153.416 19.1839C154.079 19.4207 154.824 19.6278 155.653 19.8054L158.778 20.5156C160.577 20.9062 162.163 21.4271 163.537 22.0781C164.922 22.7292 166.082 23.5045 167.017 24.4041C167.964 25.3037 168.68 26.3395 169.165 27.5114C169.65 28.6832 169.899 29.9972 169.911 31.4531C169.899 33.7495 169.319 35.7204 168.171 37.3658C167.023 39.0111 165.371 40.2718 163.217 41.1477C161.074 42.0237 158.488 42.4616 155.458 42.4616C152.416 42.4616 149.764 42.0059 147.503 41.0945C145.242 40.183 143.484 38.7981 142.23 36.9396C140.975 35.0812 140.33 32.7315 140.294 29.8906H148.711C148.782 31.0625 149.095 32.0391 149.652 32.8203C150.208 33.6016 150.971 34.1934 151.942 34.5959C152.925 34.9983 154.061 35.1996 155.351 35.1996C156.535 35.1996 157.541 35.0398 158.37 34.7202C159.21 34.4006 159.855 33.9567 160.305 33.3885C160.755 32.8203 160.986 32.1693 160.998 31.4354C160.986 30.7488 160.773 30.1629 160.358 29.6776C159.944 29.1804 159.305 28.7543 158.441 28.3991C157.588 28.0322 156.499 27.6948 155.174 27.3871L151.374 26.4993C148.225 25.7772 145.745 24.6113 143.934 23.0014C142.123 21.3797 141.224 19.1899 141.235 16.4318C141.224 14.1828 141.827 12.2119 143.047 10.5192C144.266 8.82647 145.953 7.50663 148.107 6.55966C150.261 5.61269 152.717 5.1392 155.475 5.1392C158.293 5.1392 160.737 5.61861 162.809 6.57741C164.892 7.52438 166.508 8.85606 167.656 10.5724C168.804 12.2888 169.39 14.2775 169.414 16.5384H160.998ZM174.35 42V5.63636H183.139V20.2315H197.468V5.63636H206.239V42H197.468V27.3871H183.139V42H174.35Z" fill="#FE7A36"/>
<path d="M47.299 53.6364H58.1832L67.4162 76.1506H67.8423L77.0753 53.6364H87.9595V90H79.4013V67.6634H79.0994L70.3636 89.7692H64.8949L56.1591 67.5391H55.8572V90H47.299V53.6364ZM102.231 53.6364V90H93.4416V53.6364H102.231ZM107.748 90V53.6364H116.537V82.8622H131.665V90H107.748ZM144.569 90H135.123L147.392 53.6364H159.093L171.362 90H161.916L153.376 62.7983H153.092L144.569 90ZM143.308 75.6889H163.053V82.3651H143.308V75.6889ZM206.226 53.6364V90H198.768L184.297 69.0128H184.067V90H175.278V53.6364H182.841L197.153 74.5881H197.454V53.6364H206.226Z" fill="#FA7070"/>
</svg>
